<svg xmlns="http://www.w3.org/2000/svg" width="400" height="400"><line x1="180" y1="380" x2="20" y2="300" stroke="#514edd" stroke-width="6.798704517430738" stroke-linecap="round"/><line x1="20" y1="300" x2="220" y2="300" stroke="#514edd" stroke-width="7.17512501757081" stroke-linecap="round"/><line x1="220" y1="300" x2="380" y2="380" stroke="#514edd" stroke-width="6.578813798938832" stroke-linecap="round"/><line x1="380" y1="380" x2="380" y2="20" stroke="#514edd" stroke-width="6.902831881859621" stroke-linecap="round"/><line x1="380" y1="20" x2="220" y2="60" stroke="#514edd" stroke-width="8.789821669876282" stroke-linecap="round"/><line x1="220" y1="60" x2="20" y2="20" stroke="#514edd" stroke-width="9.614673661140152" stroke-linecap="round"/><line x1="20" y1="20" x2="300" y2="60" stroke="#514edd" stroke-width="8.14634679435946" stroke-linecap="round"/><line x1="300" y1="60" x2="340" y2="220" stroke="#514edd" stroke-width="7.637499749621288" stroke-linecap="round"/><line x1="220" y1="340" x2="260" y2="380" stroke="#761834" stroke-width="9.710315581587437" stroke-linecap="round"/><line x1="260" y1="380" x2="180" y2="100" stroke="#761834" stroke-width="6.046197721723951" stroke-linecap="round"/><line x1="180" y1="100" x2="300" y2="140" stroke="#761834" stroke-width="9.102386102504184" stroke-linecap="round"/><line x1="300" y1="140" x2="300" y2="300" stroke="#761834" stroke-width="6.516870244825382" stroke-linecap="round"/><line x1="300" y1="300" x2="340" y2="140" stroke="#761834" stroke-width="9.398548119554292" stroke-linecap="round"/><line x1="340" y1="140" x2="340" y2="60" stroke="#761834" stroke-width="8.566092014800818" stroke-linecap="round"/><line x1="340" y1="60" x2="20" y2="20" stroke="#761834" stroke-width="5.970346526495545" stroke-linecap="round"/><line x1="20" y1="20" x2="300" y2="20" stroke="#761834" stroke-width="6.122405591337334" stroke-linecap="round"/></svg>