<svg xmlns="http://www.w3.org/2000/svg" width="250" height="250"><rect width="250" height="250" fill="#f1f1f1"/><line x1="218.75" y1="31.25" x2="31.25" y2="31.25" stroke="#353788" stroke-width="9.872174307999291" stroke-linecap="round"/><line x1="31.25" y1="31.25" x2="156.25" y2="93.75" stroke="#353788" stroke-width="6.089699539718443" stroke-linecap="round"/><line x1="156.25" y1="93.75" x2="31.25" y2="156.25" stroke="#353788" stroke-width="6.484564177639781" stroke-linecap="round"/><line x1="31.25" y1="156.25" x2="156.25" y2="156.25" stroke="#353788" stroke-width="8.216045478754248" stroke-linecap="round"/><line x1="156.25" y1="156.25" x2="93.75" y2="31.25" stroke="#353788" stroke-width="6.827539185976697" stroke-linecap="round"/><line x1="93.75" y1="31.25" x2="156.25" y2="218.75" stroke="#353788" stroke-width="8.05745533379492" stroke-linecap="round"/><line x1="156.25" y1="218.75" x2="218.75" y2="156.25" stroke="#353788" stroke-width="6.760161652758912" stroke-linecap="round"/><line x1="218.75" y1="93.75" x2="31.25" y2="31.25" stroke="#be7e8d" stroke-width="8.637541722850404" stroke-linecap="round"/><line x1="31.25" y1="31.25" x2="156.25" y2="93.75" stroke="#be7e8d" stroke-width="9.285416614246028" stroke-linecap="round"/><line x1="156.25" y1="93.75" x2="218.75" y2="31.25" stroke="#be7e8d" stroke-width="7.7762256198939195" stroke-linecap="round"/><line x1="218.75" y1="31.25" x2="93.75" y2="31.25" stroke="#be7e8d" stroke-width="8.71278494108406" stroke-linecap="round"/><line x1="93.75" y1="31.25" x2="218.75" y2="156.25" stroke="#be7e8d" stroke-width="9.326612844329501" stroke-linecap="round"/><line x1="218.75" y1="156.25" x2="93.75" y2="156.25" stroke="#be7e8d" stroke-width="9.613478043649792" stroke-linecap="round"/><line x1="93.75" y1="156.25" x2="218.75" y2="218.75" stroke="#be7e8d" stroke-width="6.2682400751915015" stroke-linecap="round"/></svg>