<?xml version="1.0" encoding="UTF-8" standalone="no"?>
<!-- Created with Inkscape (http://www.inkscape.org/) -->

<svg
   width="20mm"
   height="20mm"
   viewBox="0 0 20 20"
   version="1.1"
   id="svg5"
   inkscape:version="1.1.1 (c3084ef, 2021-09-22)"
   sodipodi:docname="zeichnung.svg"
   xmlns:inkscape="http://www.inkscape.org/namespaces/inkscape"
   xmlns:sodipodi="http://sodipodi.sourceforge.net/DTD/sodipodi-0.dtd"
   xmlns="http://www.w3.org/2000/svg"
   xmlns:svg="http://www.w3.org/2000/svg">
  <sodipodi:namedview
     id="namedview7"
     pagecolor="#ffffff"
     bordercolor="#666666"
     borderopacity="1.0"
     inkscape:pageshadow="2"
     inkscape:pageopacity="0.0"
     inkscape:pagecheckerboard="0"
     inkscape:document-units="mm"
     showgrid="false"
     inkscape:zoom="0.80459095"
     inkscape:cx="416.36064"
     inkscape:cy="298.28822"
     inkscape:window-width="1894"
     inkscape:window-height="1040"
     inkscape:window-x="0"
     inkscape:window-y="25"
     inkscape:window-maximized="0"
     inkscape:current-layer="layer1"
     height="200mm" />
  <defs
     id="defs2" />
  <g
     inkscape:label="Ebene 1"
     inkscape:groupmode="layer"
     id="layer1">
    <path
       style="fill:#abcdef;stroke:#000000;stroke-width:0.0322901;stroke-linecap:round;stroke-linejoin:round;stroke-miterlimit:10;paint-order:markers stroke fill"
       id="path870"
       d="M 0.01609553,5.8213838 C 0.82717627,5.5613672 1.7605512,5.2412524 2.5775597,5.1150318 3.1120259,5.0324616 3.685426,4.8461119 4.1966056,5.0269521 5.1918067,5.3790244 4.951555,6.9228353 4.8700412,7.5622269 4.777433,8.2886476 4.5678887,8.9940658 4.4168122,9.7099851 4.2645618,10.724881 3.7085755,12.304807 4.5024587,13.318543 c 0.6170015,0.78787 1.770862,0.384304 2.4941962,0.356657 0.5562319,-0.02126 1.1238192,-0.104809 1.6698286,0.0067 0.6165323,0.12589 1.1742094,0.462614 1.7613125,0.69392 0.393715,0.254721 2.806321,1.876407 3.321304,1.972773 1.41985,0.265692 2.497266,-0.705757 3.039675,-1.978153 0.545766,-1.280276 0.107784,-3.148639 -0.06078,-4.4085498 C 16.547168,9.256064 16.374526,8.5479716 16.185523,7.8444434 16.0184,7.2223569 15.792676,6.6161341 15.659702,5.9853525 c -0.240265,-1.1397317 -0.328014,-1.9136823 0.007,-3.0238831 0.27691,-0.9176369 0.607862,-1.1814569 1.181585,-1.8669262 0.237899,-0.17786849 0.457772,-0.38469567 0.713697,-0.53360517 0.08178,-0.0475865 0.186284,-0.0255104 0.278518,-0.0437138 0.917495,-0.18107673 0.326436,-0.11451599 1.15698,-0.1732963 0,0 0.431132,-0.32778117 0.431132,-0.32778117 v 0 c -0.378608,0.02838329 -0.83076,0.03828477 -1.1896,0.17736181 C 17.20654,0.59366972 17.185627,0.68470724 16.408412,1.2868177 15.853086,1.9761468 15.52949,2.243549 15.27553,3.1593466 c -0.307263,1.108017 -0.198959,1.8860126 0.05827,3.0097439 0.143256,0.6258174 0.379199,1.2253333 0.551754,1.843241 0.195256,0.6991958 0.367669,1.4049591 0.551503,2.1074395 0.226432,1.802917 0.525279,2.626291 0.0018,4.406671 -0.140178,0.476795 -0.321002,1.020785 -0.724813,1.29442 -1.315617,0.891501 -2.229115,0.07662 -3.32853,-0.577142 C 11.82104,14.90804 11.285367,14.523273 10.735278,14.163049 10.153019,13.922414 9.6018944,13.576539 8.9885016,13.441143 8.4510204,13.322506 7.8891425,13.396239 7.3397392,13.413552 6.6264594,13.43603 5.5095701,13.823744 4.878152,13.104799 3.9784565,12.080352 4.5539628,10.660687 4.7204563,9.5592582 4.8943433,8.8148157 5.5509992,6.6348779 5.2925174,5.691611 4.9323699,4.3773372 3.8411023,4.7369354 2.8926785,4.8675082 2.1423825,4.970804 1.2424825,5.2412981 0.48268195,5.4561062 c 0,0 -0.46657885,0.3652763 -0.46657885,0.3652763 z" />
    <path
       style="fill:#0000ff;stroke:#000000;stroke-width:0.0322901;stroke-linecap:round;stroke-linejoin:round;stroke-miterlimit:10;paint-order:markers stroke fill"
       id="path872"
       d="m 2.0564133,0.64471163 c 0.183077,0.028387 0.3789436,0.0102583 0.5492303,0.0851612 C 2.9485232,0.88069233 3.294342,1.0540836 3.5714859,1.3111337 5.1784335,2.8015702 5.638856,5.1005815 5.653962,7.2342388 5.661512,8.3011187 5.4772238,9.3602601 5.3888548,10.423271 c -0.6856399,3.147193 -0.5795916,3.082766 -1.567809,6.041543 -0.2626015,0.786244 -0.5720156,1.555028 -0.8580234,2.332541 0,0 0.2785136,-0.133743 0.2785136,-0.133743 v 0 C 3.5094318,17.8943 3.7972192,17.132047 4.0452231,16.355678 4.9944625,13.384113 4.8926943,13.481468 5.584776,10.322684 5.6883528,9.2498241 5.8833323,8.1821933 5.8955063,7.1041044 5.9204634,4.8939406 5.5388403,2.666035 3.9622373,1.0515941 3.7005294,0.7836054 3.3716201,0.58983039 3.0443785,0.4143662 2.8892952,0.33121171 2.7047299,0.3289691 2.534906,0.28627061 c 0,0 -0.4784927,0.35844102 -0.4784927,0.35844102 z" />
    <path
       style="fill:#00ff00;stroke:#000000;stroke-width:0.0322901;stroke-linecap:round;stroke-linejoin:round;stroke-miterlimit:10;paint-order:markers stroke fill"
       id="path874"
       d="m 11.680489,1.8638002 c -0.232747,2.8088494 -0.299569,5.5649912 0.676477,8.2715528 0.951164,2.63756 2.034372,3.794249 3.639107,5.986743 2.527595,2.797623 1.276758,1.520176 3.724026,3.861771 0,0 0.263759,-0.16857 0.263759,-0.16857 v 0 c -2.523816,-2.284923 -1.238524,-1.031761 -3.824852,-3.793027 -1.626024,-2.19546 -2.7075,-3.309574 -3.627593,-5.983494 -0.957226,-2.7818324 -0.800779,-5.614744 -0.322998,-8.4523205 0,0 -0.527926,0.2773447 -0.527926,0.2773447 z" />
    <path
       style="fill:#ff0000;stroke:#000000;stroke-width:0.0291478;stroke-linecap:round;stroke-linejoin:round;stroke-miterlimit:10;paint-order:markers stroke fill"
       id="path876"
       d="m 8.1563974,19.714244 c 0.1202819,-1.046473 0.3593254,-2.072249 0.5938975,-3.087515 0.1319639,-0.571162 0.2688748,-1.140728 0.4120317,-1.707986 0.1291969,-0.511944 0.252893,-1.026552 0.4049613,-1.529348 0.104233,-0.344633 0.2420143,-0.673261 0.3630217,-1.009892 -0.023833,0.05229 -0.088748,0.100978 -0.071498,0.156877 0.08074,0.26163 0.2296464,0.485107 0.3444694,0.727661 0.136682,0.427479 0.280805,0.85163 0.410045,1.282435 0.147345,0.491163 0.490636,2.019391 0.870129,2.472797 0.164762,0.19685 0.436023,0.193278 0.654033,0.289916 0.246745,-0.08064 0.501797,-0.130924 0.740232,-0.241918 0.626219,-0.29151 0.734775,-0.560644 1.379422,-0.75977 0.628234,-0.194057 0.930253,-0.0607 1.583742,-0.02913 0.340859,0.01647 0.682193,0.01227 1.023291,0.0184 1.231215,-0.403734 1.410852,-0.321399 2.530271,-1.417511 C 19.735877,14.544937 2.6940892,27.331768 18.288502,10.585369 21.650478,6.9750381 12.9512,15.270031 15.850575,10.694328 16.163009,10.201256 1.9519321,19.608522 2.2932692,19.143922 3.6990337,17.571398 5.3463751,16.371617 7.104237,15.4607 7.7821759,15.109395 8.1031516,14.996347 8.7679875,14.72935 8.9323216,14.64288 9.8326631,14.28259 8.4955846,14.19829 8.0348115,14.16924 3.5629183,14.724615 3.4843215,14.734868 1.2488533,15.026472 20.313857,5.6973911 18.108724,6.0403729 c -1.365299,0.1625916 -2.714793,0.4805059 -4.07846,0.6588509 -0.379921,0.049688 -0.76437,0.1485176 -1.143826,0.093948 -0.128024,-0.018411 -0.301699,-0.1461763 -0.294794,-0.3008374 0.01205,-0.2700605 0.211231,-0.479143 0.339533,-0.7013802 0.201928,-0.3497679 0.432776,-0.6741205 0.649165,-1.0111807 0.506795,-0.9184832 0.719783,-1.11072 0.923998,-2.1564841 0.132694,-0.6795147 0.06681,-1.3928133 -0.143323,-2.03515342 -0.03886,-0.11878637 -0.09327,-0.22935485 -0.139908,-0.34403229 -0.04218,-0.0765025 -0.08437,-0.15300505 -0.126548,-0.22950754 l -0.409174,0.28945018 v 0 c 0.04426,0.0721323 0.08852,0.14426459 0.132781,0.21639701 0.0495,0.10973874 0.106899,0.21484548 0.148504,0.32921623 0.223536,0.61449693 0.303436,1.30994203 0.183352,1.97275683 -0.188877,1.0425368 -0.400268,1.2168816 -0.90955,2.1322727 -0.05302,0.080077 -1.046884,1.4444008 -1.029714,1.8295756 0.0079,0.1783361 0.239381,0.2538733 0.387781,0.264713 0.403871,0.029501 0.806458,-0.084336 1.207569,-0.1481819 C 15.20106,6.6787568 16.582597,6.34369 17.981564,6.1544396 20.291365,5.7812419 1.0100417,15.126346 3.3575207,14.847658 c 0.9219444,-0.109452 1.846495,-0.18449 2.769743,-0.276735 0.6836401,-0.033 1.3692866,-0.02804 2.0509214,-0.09901 0.4208335,-0.04381 1.6446833,-0.427883 1.2507482,-0.244731 -13.581227,6.314283 -0.2261608,0.134363 -0.3392383,0.201544 -0.6778334,0.281969 -18.9536458,8.142721 -1.7139407,0.772498 1.0432251,-0.445993 -1.7386051,0.990837 -2.7122714,1.704851 -0.4682324,0.343367 -0.9321909,0.698 -1.3717855,1.092225 -0.4476228,0.401425 -0.8571844,0.860706 -1.2857766,1.291059 -0.3470574,0.469702 11.9905892,-8.86014 11.6722902,-8.361912 -0.282846,0.442735 5.15909,1.081888 4.906725,1.550452 -0.223633,0.435305 1.634505,0.970245 1.377714,1.378294 -0.400678,0.63669 -1.023848,1.462032 -1.673573,1.803854 -0.354236,0.186363 -0.745631,0.246902 -1.118446,0.370354 -0.335622,-0.0097 -0.67164,-0.0073 -1.006867,-0.02913 -0.659155,-0.04295 -0.943989,-0.192099 -1.581664,-9.65e-4 -0.744284,0.223042 -1.319671,0.924976 -2.099361,1.027438 -0.222909,-0.07895 -0.496383,-0.04957 -0.668725,-0.236851 -0.243923,-0.265059 -0.363081,-0.663678 -0.493695,-1.026297 -0.165691,-0.460001 -0.259208,-0.952846 -0.390545,-1.428583 -0.121455,-0.439945 -0.226243,-0.887273 -0.367827,-1.318447 -0.09336,-0.284331 -0.09699,-0.717317 -0.335563,-0.823606 -0.2270454,-0.101154 -0.4350863,0.255562 -0.6526294,0.383343 -0.1045744,0.328776 -0.2203792,0.652712 -0.3137226,0.986331 -0.1474433,0.526979 -0.6958301,2.770015 -0.8101383,3.234763 -0.2406172,0.978289 -0.4471725,1.785746 -0.6566463,2.754139 -0.030947,0.143067 -0.053287,0.288624 -0.079929,0.432936 l 0.4430792,-0.27119 z"
       sodipodi:nodetypes="cssscscsscssscssscscsccsssscsscccscsscssscscsscssscscsscsccssssscsssccc" />
  </g>
</svg>
