<?xml version="1.0" encoding="UTF-8" standalone="no"?>
<!-- Created with Inkscape (http://www.inkscape.org/) -->

<svg
   width="200mm"
   height="200mm"
   viewBox="0 0 200 200"
   version="1.1"
   id="svg5"
   inkscape:version="1.1.1 (c3084ef, 2021-09-22)"
   sodipodi:docname="zeichnung.svg"
   xmlns:inkscape="http://www.inkscape.org/namespaces/inkscape"
   xmlns:sodipodi="http://sodipodi.sourceforge.net/DTD/sodipodi-0.dtd"
   xmlns="http://www.w3.org/2000/svg"
   xmlns:svg="http://www.w3.org/2000/svg">
  <sodipodi:namedview
     id="namedview7"
     pagecolor="#ffffff"
     bordercolor="#666666"
     borderopacity="1.0"
     inkscape:pageshadow="2"
     inkscape:pageopacity="0.0"
     inkscape:pagecheckerboard="0"
     inkscape:document-units="mm"
     showgrid="false"
     inkscape:zoom="0.44137954"
     inkscape:cx="548.28096"
     inkscape:cy="758.98398"
     inkscape:window-width="1894"
     inkscape:window-height="1040"
     inkscape:window-x="0"
     inkscape:window-y="25"
     inkscape:window-maximized="0"
     inkscape:current-layer="layer1"
     height="200mm" />
  <defs
     id="defs2" />
  <g
     inkscape:label="Ebene 1"
     inkscape:groupmode="layer"
     id="layer1">
    <path
       style="fill:#abcdef;stroke:#000000;stroke-width:0.264583;stroke-linecap:round;stroke-linejoin:round;stroke-miterlimit:10;paint-order:markers stroke fill"
       id="path870"
       d="m 21.841801,65.399459 c 6.748357,-2.098231 14.514227,-4.681432 21.311904,-5.699982 4.446868,-0.666309 9.217673,-2.170078 13.470792,-0.710769 8.280276,2.841085 6.281333,15.299031 5.603121,20.45867 -0.770522,5.861929 -2.51397,11.554376 -3.770958,17.331563 -1.266754,8.189809 -5.892673,20.939189 0.712594,29.119639 5.133578,6.3578 14.733932,3.10118 20.752221,2.87808 4.627962,-0.17155 9.350404,-0.84576 13.893313,0.0539 5.129675,1.01588 9.769662,3.73311 14.654482,5.59966 3.27579,2.0555 23.34916,15.14187 27.63392,15.91951 11.81345,2.14402 20.77777,-5.69519 25.29072,-15.96292 4.54088,-10.33128 0.89679,-25.40824 -0.50573,-35.575223 -1.50449,-5.695611 -2.94091,-11.409637 -4.51345,-17.086833 -1.3905,-5.019993 -3.26857,-9.911972 -4.37494,-15.002132 -1.99906,-9.197186 -2.72914,-15.442663 0.0583,-24.401547 2.30394,-7.404968 5.05754,-9.533892 9.83103,-15.065359 1.97937,-1.435329 3.80875,-3.104343 5.9381,-4.305984 0.68046,-0.384004 1.54992,-0.205859 2.31733,-0.352753 7.63374,-1.461218 2.71601,-0.924099 9.62631,-1.398433 0,0 3.5871,-2.645065 3.5871,-2.645065 v 0 c -3.15009,0.229042 -6.91209,0.308943 -9.89771,1.43124 -8.5904,3.229143 -8.7644,3.96378 -15.23098,8.822575 -4.62042,5.562614 -7.31281,7.720444 -9.42581,15.110571 -2.55649,8.941261 -1.65538,15.219379 0.48484,24.287448 1.19191,5.0501 3.15501,9.887958 4.5907,14.87423 1.62457,5.642234 3.05908,11.337467 4.58862,17.006205 1.88396,14.54883 4.37043,21.19314 0.0154,35.5601 -1.16631,3.84755 -2.6708,8.23734 -6.03059,10.44546 -10.9462,7.19406 -18.5467,0.6183 -27.69405,-4.65731 -4.69678,-2.70881 -9.15369,-5.81373 -13.73054,-8.72059 -4.84451,-1.94183 -9.42998,-4.73291 -14.533533,-5.82549 -4.471953,-0.95736 -9.146892,-0.36236 -13.71804,-0.22265 -5.934633,0.18138 -15.227379,3.31008 -20.480906,-2.49152 -7.485909,-8.26688 -2.69758,-19.72302 -1.31232,-28.611116 1.446776,-6.007357 6.910287,-23.598598 4.759666,-31.21039 -2.996501,-10.605672 -12.07607,-7.703857 -19.967149,-6.650186 -6.242616,0.833557 -13.729967,3.016338 -20.051663,4.749755 0,0 -3.882031,2.947636 -3.882031,2.947636 z" />
    <path
       style="fill:#0000ff;stroke:#000000;stroke-width:0.264583;stroke-linecap:round;stroke-linejoin:round;stroke-miterlimit:10;paint-order:markers stroke fill"
       id="path872"
       d="m 38.817661,23.625752 c 1.523238,0.229072 3.152888,0.08278 4.569708,0.687217 2.852828,1.217054 5.730111,2.616254 8.036005,4.690547 13.370131,12.027236 17.20094,30.579353 17.326625,47.797127 0.06284,8.609301 -1.470498,17.156155 -2.205746,25.734237 -5.704663,25.39661 -4.82232,24.8767 -13.04449,48.75287 -2.184898,6.34468 -4.759286,12.54846 -7.13893,18.82269 0,0 2.31729,-1.07926 2.31729,-1.07926 v 0 c 2.228948,-6.20804 4.623398,-12.35912 6.686841,-18.62412 7.897865,-23.97936 7.051133,-23.19374 12.809394,-48.68388 0.86178,-8.657557 2.484049,-17.272917 2.585339,-25.972671 0.207648,-17.835152 -2.967534,-35.813473 -16.085192,-48.841376 -2.177463,-2.162563 -4.914056,-3.726251 -7.636772,-5.142178 -1.290325,-0.671024 -2.825946,-0.689121 -4.238916,-1.033681 0,0 -3.981156,2.892478 -3.981156,2.892478 z" />
    <path
       style="fill:#00ff00;stroke:#000000;stroke-width:0.264583;stroke-linecap:round;stroke-linejoin:round;stroke-miterlimit:10;paint-order:markers stroke fill"
       id="path874"
       d="m 118.89193,33.463317 c -1.9365,22.666309 -2.49248,44.907289 5.62843,66.748173 7.91387,21.28407 16.92639,30.6181 30.27811,48.31066 21.0301,22.57572 10.62288,12.26722 30.98465,31.16297 0,0 2.19453,-1.36029 2.19453,-1.36029 v 0 c -20.99866,-18.43843 -10.30477,-8.3259 -31.82355,-30.60824 -13.52885,-17.71649 -22.52695,-26.70695 -30.18231,-48.284436 -7.96431,-22.448292 -6.66264,-45.308774 -2.68741,-68.2069 0,0 -4.39245,2.238063 -4.39245,2.238063 z" />
    <path
       style="fill:#ff0000;stroke:#000000;stroke-width:0.264583;stroke-linecap:round;stroke-linejoin:round;stroke-miterlimit:10;paint-order:markers stroke fill"
       id="path876"
       d="m 80.132062,171.08729 c 1.196655,-8.66707 3.574841,-17.16272 5.908542,-25.57133 1.312876,-4.73046 2.67497,-9.4477 4.099203,-14.14583 1.285349,-4.24 2.515971,-8.50208 4.028861,-12.66631 1.036989,-2.85432 2.407743,-5.57607 3.611615,-8.3641 -0.237103,0.43309 -0.882935,0.83631 -0.711313,1.29928 0.803261,2.16686 2.284695,4.01774 3.42704,6.02661 1.35981,3.54045 2.79366,7.05334 4.07943,10.62134 1.46591,4.0679 4.88123,16.72494 8.65671,20.48013 1.63917,1.63035 4.33788,1.60076 6.50682,2.40114 2.4548,-0.66787 4.99225,-1.08434 7.36438,-2.00361 6.23011,-2.41433 7.3101,-4.64335 13.72354,-6.29255 6.25015,-1.60721 9.25486,-0.50276 15.75626,-0.24128 3.39113,0.13639 6.78698,0.10159 10.18047,0.15239 12.24906,-3.3438 14.03623,-2.66188 25.17306,-11.74007 3.39681,-2.76891 -166.147797,103.1338 -11.00277,-35.562741 33.44748,-29.901375 -53.09952,38.799171 -24.25434,0.902423 3.10833,-4.083714 -138.274227,73.828878 -134.878347,69.980978 13.98561,-13.02391 30.37461,-22.9607 47.86315,-30.50507 6.74465,-2.90957 9.93796,-3.84585 16.55225,-6.05716 1.63492,-0.71615 10.5922,-3.70015 -2.71007,-4.39834 -4.58412,-0.2406 -49.0739,4.35912 -49.85584,4.44404 -22.24013,2.41511 167.432967,-74.849936 145.494627,-72.009303 -13.58302,1.346612 -27.00881,3.979632 -40.5756,5.456716 -3.77974,0.41152 -7.60454,1.230048 -11.37966,0.778092 -1.27367,-0.152485 -3.00152,-1.210657 -2.93283,-2.491587 0.11994,-2.236687 2.10149,-3.968345 3.37793,-5.808951 2.00894,-2.896838 4.30559,-5.583181 6.45839,-8.374771 5.04198,-7.607035 7.16095,-9.199173 9.19263,-17.86037 1.32014,-5.627856 0.66466,-11.535517 -1.42589,-16.855488 -0.38661,-0.983809 -0.92794,-1.899556 -1.3919,-2.8493342 -0.41967,-0.633607 -0.83933,-1.2672139 -1.259,-1.9008206 l -4.07077,2.3972758 v 0 c 0.44034,0.597412 0.88067,1.194824 1.321,1.792237 0.49248,0.908875 1.06351,1.779387 1.47743,2.726625 2.22391,5.089369 3.01881,10.849163 1.82413,16.338709 -1.8791,8.634468 -3.98217,10.078421 -9.04889,17.659847 -0.52748,0.663213 -10.4152,11.962773 -10.24438,15.152857 0.0791,1.47701 2.38154,2.102622 3.85794,2.192398 4.01802,0.244329 8.02325,-0.698487 12.01381,-1.227267 13.87802,-1.838939 27.62259,-4.614019 41.54058,-6.181423 C 200.85991,55.691785 9.0347034,133.08953 32.389203,130.7814 c 9.1722,-0.9065 18.37033,-1.52798 27.5555,-2.29197 6.80137,-0.27333 13.6227,-0.23224 20.40412,-0.81999 4.18677,-0.36286 16.362554,-3.5438 12.44339,-2.02691 -135.11633,52.29597 -2.25002,1.11282 -3.375,1.66923 -6.7436,2.33531 -188.56522,67.4394 -17.05158,6.39796 10.378793,-3.6938 -17.29696,8.20628 -26.98373,14.11987 -4.65833,2.84382 -9.27414,5.78095 -13.64756,9.04599 -4.45329,3.32467 -8.52792,7.12851 -12.79188,10.69276 -3.45279,3.89016 119.291457,-73.381191 116.124777,-69.254779 -2.81396,3.666809 51.32654,8.960379 48.81582,12.841119 -2.22487,3.60527 16.26129,8.03572 13.70654,11.41526 -3.98625,5.27318 -10.18601,12.1088 -16.64997,14.93982 -3.52421,1.5435 -7.4181,2.04489 -11.12714,3.06734 -3.33903,-0.0804 -6.68199,-0.0604 -10.01708,-0.24129 -6.55778,-0.35571 -9.39152,-1.591 -15.7356,-0.008 -7.40469,1.84728 -13.12908,7.66081 -20.88603,8.50942 -2.21766,-0.65388 -4.93839,-0.41058 -6.65298,-1.96164 -2.42673,-2.19526 -3.6122,-5.49669 -4.91165,-8.49996 -1.64842,-3.80981 -2.5788,-7.89164 -3.88544,-11.83177 -1.20833,-3.6437 -2.25083,-7.34855 -3.65942,-10.91961 -0.92889,-2.35488 -0.96497,-5.94094 -3.33844,-6.82124 -2.258814,-0.83778 -4.328562,2.1166 -6.492846,3.17491 -1.040384,2.72298 -2.192499,5.40587 -3.121149,8.16896 -1.466879,4.36453 -6.922646,22.94174 -8.05987,26.79086 -2.393842,8.10236 -4.44881,14.78986 -6.532814,22.81025 -0.307885,1.18491 -0.530132,2.39043 -0.795197,3.58565 l 4.408088,-2.24604 z"
       sodipodi:nodetypes="cssscscsscssscssscscsccsssscsscccscsscssscscsscssscscsscsccssssscsssccc" />
  </g>
</svg>
