<?xml version="1.0" encoding="UTF-8" standalone="no"?>
<svg
   width="400"
   height="400"
   version="1.1"
   id="svg1694"
   sodipodi:docname="icon.svg"
   inkscape:version="1.1.1 (c3084ef, 2021-09-22)"
   xmlns:inkscape="http://www.inkscape.org/namespaces/inkscape"
   xmlns:sodipodi="http://sodipodi.sourceforge.net/DTD/sodipodi-0.dtd"
   xmlns="http://www.w3.org/2000/svg"
   xmlns:svg="http://www.w3.org/2000/svg">
  <defs
     id="defs1698" />
  <sodipodi:namedview
     id="namedview1696"
     pagecolor="#ffffff"
     bordercolor="#666666"
     borderopacity="1.0"
     inkscape:pageshadow="2"
     inkscape:pageopacity="0.0"
     inkscape:pagecheckerboard="0"
     showgrid="false"
     inkscape:zoom="1.90352"
     inkscape:cx="244.28428"
     inkscape:cy="321.7723"
     inkscape:window-width="1377"
     inkscape:window-height="1081"
     inkscape:window-x="220"
     inkscape:window-y="25"
     inkscape:window-maximized="0"
     inkscape:current-layer="svg1694" />
  <rect
     style="fill:#d2e4f7;fill-opacity:1;stroke:#000000;stroke-width:0.70431;stroke-linecap:round;stroke-linejoin:round;stroke-miterlimit:10;paint-order:markers stroke fill"
     id="rect1779"
     width="281.62622"
     height="281.6597"
     x="-146.61263"
     y="141.65871"
     transform="matrix(0.69430897,-0.71967705,0.72179405,0.6921079,0,0)" />
  <g
     id="line1676"
     style="stroke-width:2;stroke-miterlimit:4;stroke-dasharray:none;stroke:#0b0903;stroke-opacity:1">
    <path
       style="color:#000000;fill:#000000;stroke-width:2;stroke-linecap:round;stroke-miterlimit:4;stroke-dasharray:none;stroke:#0b0903;stroke-opacity:1"
       d="m 100,260 120,80 M 100,20 V 260 M 180,220 100,20 m 0,160 80,40 m 200,40 -280,-80 m 200,80 h 80 m -240,0 h 160 m -160,40 v -40"
       id="path2282" />
    <path
       style="color:#000000;fill:#d4b95f;stroke-linecap:round;stroke-width:5;stroke-miterlimit:4;stroke-dasharray:none;stroke:#0b0903;stroke-opacity:1"
       d="m 100,10 a 10,10 0 0 0 -1.783203,0.738281 10,10 0 0 0 -1.931641,-0.02344 10,10 0 0 0 -1.466797,1.43164 10,10 0 0 0 -2.626953,2.564454 10,10 0 0 0 -1.408203,3.398437 A 10,10 0 0 0 90,20 v 240 a 10,10 0 0 0 0.392578,0.94922 10,10 0 0 0 1.423828,3.43555 10,10 0 0 0 2.0625,3.07812 10,10 0 0 0 0.574219,0.85742 L 130,292.01758 V 300 a 10,10 0 0 0 10,10 10,10 0 0 0 8.26172,-5.80664 l 66.1914,44.12695 a 10,10 0 0 0 13.86719,-2.77344 10,10 0 0 0 -2.77344,-13.86718 L 150,281.31445 V 270 h 150 80 a 10,10 0 0 0 2.33789,-0.96875 10,10 0 0 0 3.41016,-1.41211 10,10 0 0 0 2.29101,-2.88477 10,10 0 0 0 1.57617,-1.98632 10,10 0 0 0 0.36914,-2.70899 A 10,10 0 0 0 390,260 a 10,10 0 0 0 -0.16211,-1.23633 10,10 0 0 0 -0.16602,-1.26758 10,10 0 0 0 -0.48242,-1.2207 10,10 0 0 0 -0.49804,-1.19922 10,10 0 0 0 -0.75,-1.01367 10,10 0 0 0 -0.82422,-1.07031 10,10 0 0 0 -0.98438,-0.78321 10,10 0 0 0 -1.0664,-0.81836 10,10 0 0 0 -1.20899,-0.52539 10,10 0 0 0 -1.10937,-0.48046 l -0.16016,-0.0449 -202.86523,-57.96289 -70.4375,-176.091794 a 10,10 0 0 0 -0.16016,-0.164062 10,10 0 0 0 -5.03516,-5.158203 10,10 0 0 0 -0.3789,-0.15625 A 10,10 0 0 0 100,10 Z M 110,71.927734 155.40039,185.42773 110,172.45703 Z m 0,124.251956 65.52734,32.76367 a 10,10 0 0 0 0.3125,0.0215 10,10 0 0 0 3.79102,0.26953 10,10 0 0 0 3.76758,0.0469 10,10 0 0 0 0.3164,0.004 10,10 0 0 0 5.08789,-4.68946 10,10 0 0 0 0.14063,-0.12304 10,10 0 0 0 0.0957,-0.27539 10,10 0 0 0 0.42969,-1.2461 10,10 0 0 0 0.34961,-1.23828 10,10 0 0 0 0.0918,-1.30469 10,10 0 0 0 0.0156,-1.29883 10,10 0 0 0 -0.24805,-1.28125 10,10 0 0 0 -0.31836,-1.25195 10,10 0 0 0 -0.0742,-0.29101 L 189.11523,215.86133 308.59766,250 H 300 140 a 10,10 0 0 0 -10,10 v 7.98242 l -20,-13.33398 z"
       id="path2284" />
  </g>
  <g
     id="line1692"
     style="stroke:#020000;stroke-opacity:1;stroke-width:2;stroke-miterlimit:4;stroke-dasharray:none">
    <path
       style="color:#000000;fill:#000000;stroke-width:2;stroke-linecap:round;stroke:#020000;stroke-opacity:1;stroke-miterlimit:4;stroke-dasharray:none"
       d="M 20,340 300,260 M 60,100 20,340 M 100,300 60,100 M 260,380 100,300 m 160,40 v 40 M 140,20 260,340 M 300,220 140,20 m 240,80 -80,120"
       id="path2177" />
    <path
       style="color:#000000;fill:#fa6332;stroke-linecap:round;stroke:#020000;stroke-opacity:1;stroke-width:5;stroke-miterlimit:4;stroke-dasharray:none"
       d="m 141.10352,10.060547 a 10,10 0 0 0 -2.26368,0.65625 10,10 0 0 0 -2.35156,-0.08008 10,10 0 0 0 -1.18164,1.105469 10,10 0 0 0 -1.55273,0.449218 10,10 0 0 0 -1.13477,2.060547 10,10 0 0 0 -1.77734,3.226563 10,10 0 0 0 -0.125,3.68164 10,10 0 0 0 -0.0801,2.351563 L 223.60547,271.42773 122.81055,300.22461 108.84766,293.24414 69.806641,98.039062 a 10,10 0 0 0 -0.128907,-0.191406 10,10 0 0 0 -4.021484,-6.003906 10,10 0 0 0 -0.333984,-0.208984 10,10 0 0 0 -3.677735,-1.498047 10,10 0 0 0 -1.792969,0.416015 10,10 0 0 0 -1.8125,-0.359375 10,10 0 0 0 -1.77539,1.189453 10,10 0 0 0 -3.050781,2.042969 10,10 0 0 0 -1.947266,3.121094 10,10 0 0 0 -1.128906,1.808594 l -40,240.000001 a 10,10 0 0 0 0.503906,2.17187 10,10 0 0 0 -0.255859,2.22071 10,10 0 0 0 1.085937,1.36718 10,10 0 0 0 2.285156,2.87891 10,10 0 0 0 3.121094,1.94727 10,10 0 0 0 1.478516,0.92187 10,10 0 0 0 2.171875,-0.50391 10,10 0 0 0 2.220703,0.25586 l 98.078123,-28.02148 134.70117,67.34961 a 10,10 0 0 0 2.32032,0.16601 A 10,10 0 0 0 260,390 a 10,10 0 0 0 1.52148,-0.63086 10,10 0 0 0 3.40039,-1.4082 10,10 0 0 0 2.77735,-2.41016 10,10 0 0 0 1.24414,-1.07812 10,10 0 0 0 0.98437,-4.29688 A 10,10 0 0 0 270,380 v -40 a 10,10 0 0 0 -0.0625,-0.48242 10,10 0 0 0 -0.16992,-1.28516 10,10 0 0 0 -0.29492,-1.27344 10,10 0 0 0 -0.10938,-0.4707 l -19.41992,-51.78516 52.80469,-15.08789 a 10,10 0 0 0 6.86718,-12.36328 10,10 0 0 0 -12.36328,-6.86718 L 242.89844,265.91406 171.40234,75.259766 292.19141,226.24609 a 10,10 0 0 0 1.38281,0.76172 10,10 0 0 0 0.8789,1.3125 10,10 0 0 0 2.34766,0.46485 10,10 0 0 0 3.61133,0.71484 10,10 0 0 0 3.53711,-1.02539 10,10 0 0 0 2.29687,-0.66602 10,10 0 0 0 1.98438,-2.20117 10,10 0 0 0 0.0898,-0.0605 l 80,-119.99999 a 10,10 0 0 0 -2.77344,-13.867193 10,10 0 0 0 -13.86718,2.773438 L 299.26562,203.07422 147.80859,13.753906 a 10,10 0 0 0 -2.06054,-1.134765 10,10 0 0 0 -3.22657,-1.777344 10,10 0 0 0 -1.41796,-0.78125 z M 60.894531,155.46289 90.193359,301.96094 a 10,10 0 0 0 0.367188,0.54687 10,10 0 0 0 2.080078,3.10742 10,10 0 0 0 1.826172,2.70704 L 32.464844,326.03906 Z M 230.65039,290.21484 250,341.81445 v 22.00586 L 149.2832,313.46289 Z"
       id="path2179" />
  </g>
</svg>
