<?xml version="1.0" encoding="UTF-8" standalone="no"?>
<svg
   width="200"
   height="200"
   version="1.1"
   id="svg1694"
   sodipodi:docname="icon.svg"
   inkscape:version="1.1.1 (c3084ef, 2021-09-22)"
   xmlns:inkscape="http://www.inkscape.org/namespaces/inkscape"
   xmlns:sodipodi="http://sodipodi.sourceforge.net/DTD/sodipodi-0.dtd"
   xmlns="http://www.w3.org/2000/svg"
   xmlns:svg="http://www.w3.org/2000/svg">
  <defs
     id="defs1698" />
  <sodipodi:namedview
     id="namedview1696"
     pagecolor="#ffffff"
     bordercolor="#666666"
     borderopacity="1.0"
     inkscape:pageshadow="2"
     inkscape:pageopacity="0.0"
     inkscape:pagecheckerboard="0"
     showgrid="false"
     inkscape:zoom="1.0550375"
     inkscape:cx="85.778942"
     inkscape:cy="343.58969"
     inkscape:window-width="1377"
     inkscape:window-height="1081"
     inkscape:window-x="220"
     inkscape:window-y="25"
     inkscape:window-maximized="0"
     inkscape:current-layer="svg1694" />
  <rect
     style="fill:#e46868;fill-opacity:1;stroke:#000000;stroke-width:0.352559;stroke-linecap:round;stroke-linejoin:round;stroke-miterlimit:10;paint-order:markers stroke fill"
     id="rect1779"
     width="140.97479"
     height="140.99155"
     x="-73.544846"
     y="71.129234"
     transform="matrix(0.69430897,-0.71967705,0.72179405,0.6921079,0,0)" />
  <g
     id="line915"
     style="fill:#4863fb;fill-opacity:1;stroke:#0c0c0c;stroke-width:5;stroke-miterlimit:4;stroke-dasharray:none;stroke-opacity:1"
     transform="matrix(1.0543317,0,0,1.0543317,-93.318926,-704.20953)">
    <path
       style="color:#000000;fill:#4863fb;fill-opacity:1;stroke:#0c0c0c;stroke-width:5;stroke-linecap:round;stroke-miterlimit:4;stroke-dasharray:none;stroke-opacity:1"
       d="m 100.12177,762.75824 h 83.33334 m 83.33331,-83.33331 -166.66665,83.33331 m 83.33334,83.33331 83.33331,-166.66662"
       id="path1097" />
    <path
       style="color:#000000;fill:#4863fb;fill-opacity:1;stroke:#0c0c0c;stroke-width:5;stroke-linecap:round;stroke-miterlimit:4;stroke-dasharray:none;stroke-opacity:1"
       d="m 263.94141,670.88672 a 9,9 0 0 0 -0.50782,0.4414 9,9 0 0 0 -0.66992,0.0469 L 96.097656,754.70898 a 9,9 0 0 0 -0.96875,1.11719 9,9 0 0 0 -2.173828,2.50586 9,9 0 0 0 -1.265625,3.05469 9,9 0 0 0 -0.568359,1.37109 9,9 0 0 0 0.802734,1.9375 9,9 0 0 0 0.148438,2.08789 9,9 0 0 0 1.117187,0.97071 9,9 0 0 0 2.503906,2.16992 9,9 0 0 0 3.060547,1.26758 9,9 0 0 0 1.367184,0.5664 h 83.33399 a 9,9 0 0 0 9,-9 9,9 0 0 0 -9,-9 H 138.24805 L 246.66406,699.54883 175.4043,842.06641 a 9,9 0 0 0 4.02539,12.07421 9,9 0 0 0 12.07617,-4.02343 l 83.26953,-166.54492 0.0625,-0.12305 a 9,9 0 0 0 0.40625,-1.2832 9,9 0 0 0 0.42188,-1.33399 9,9 0 0 0 0.0117,-1.40625 9,9 0 0 0 -0.0117,-1.4082 9,9 0 0 0 -0.42188,-1.33399 9,9 0 0 0 -0.40625,-1.2832 9,9 0 0 0 -0.0293,-0.0254 9,9 0 0 0 -3.99609,-4 9,9 0 0 0 -0.66992,-0.0469 9,9 0 0 0 -3.35352,-0.23828 9,9 0 0 0 -2.84765,-0.20312 z"
       id="path1099" />
  </g>
  <g
     id="line921"
     style="fill:#70df4d;fill-opacity:1;stroke:#0c0c0c;stroke-width:5;stroke-miterlimit:4;stroke-dasharray:none;stroke-opacity:1"
     transform="matrix(1.0543317,0,0,1.0543317,-93.318926,-704.20953)">
    <path
       style="color:#000000;fill:#70df4d;fill-opacity:1;stroke:#0c0c0c;stroke-width:5;stroke-linecap:round;stroke-miterlimit:4;stroke-dasharray:none;stroke-opacity:1"
       d="m 266.78842,846.09155 -83.33331,-83.33331 m 0,-83.33331 83.33331,166.66662 m -83.33331,0 V 679.42493"
       id="path1103" />
    <path
       style="color:#000000;fill:#70df4d;fill-opacity:1;stroke:#0c0c0c;stroke-width:5;stroke-linecap:round;stroke-miterlimit:4;stroke-dasharray:none;stroke-opacity:1"
       d="m 183.45508,670.42578 a 9,9 0 0 0 -1.9336,0.80078 9,9 0 0 0 -2.09179,0.14844 9,9 0 0 0 -0.97071,1.11914 9,9 0 0 0 -2.16796,2.49805 9,9 0 0 0 -1.26954,3.0664 9,9 0 0 0 -0.5664,1.36719 v 83.33203 83.33399 a 9,9 0 0 0 9,9 9,9 0 0 0 9,-9 v -61.60547 l 67.96875,67.96875 a 9,9 0 0 0 1.93554,0.80078 9,9 0 0 0 3.0586,1.26758 9,9 0 0 0 3.30859,-0.23438 9,9 0 0 0 2.08594,-0.14844 9,9 0 0 0 2.32227,-1.67773 9,9 0 0 0 0.0176,-0.008 9,9 0 0 0 0.80664,-1.11133 9,9 0 0 0 0.82813,-1.13867 9,9 0 0 0 0.46875,-1.40625 9,9 0 0 0 0.41016,-1.26367 9,9 0 0 0 0.0117,-1.50391 9,9 0 0 0 0,-1.31055 9,9 0 0 0 -0.43164,-1.36328 9,9 0 0 0 -0.4082,-1.29101 l -0.0312,-0.0606 -83.30078,-166.60547 a 9,9 0 0 0 -0.22461,-0.19531 9,9 0 0 0 -4.94922,-4.29102 9,9 0 0 0 -0.0508,-0.0254 9,9 0 0 0 -2.82617,-0.46289 z m 9,47.125 41.48047,82.96094 -41.48047,-41.48047 z"
       id="path1105" />
  </g>
</svg>
